<svg width="18" height="14" viewBox="0 0 18 14" fill="none" xmlns="http://www.w3.org/2000/svg">
<path fill-rule="evenodd" clip-rule="evenodd" d="M10.7942 0.294938C10.2296 0.103454 9.62583 0 9.00001 0C6.1535 0 3.7622 2.14032 3.44786 4.96942L3.19605 7.23563L3.1896 7.29326C3.06065 8.41695 2.69489 9.50053 2.11646 10.4725L2.08667 10.5222L1.50863 11.4856C0.98408 12.3599 0.721804 12.797 0.778423 13.1559C0.816098 13.3946 0.938986 13.6117 1.12435 13.7668C1.40292 14 1.9127 14 2.93224 14H15.0678C16.0873 14 16.5971 14 16.8757 13.7668C17.061 13.6117 17.1839 13.3946 17.2216 13.1559C17.2782 12.797 17.0159 12.3599 16.4914 11.4856L15.9134 10.5222L15.8836 10.4725C15.4273 9.70588 15.1034 8.86983 14.9236 7.99943C12.1974 7.95861 10 5.73592 10 3C10 2.00331 10.2916 1.07473 10.7942 0.294938ZM13.2741 1.98883C13.0999 2.28551 13 2.63109 13 3C13 3.94979 13.6621 4.74494 14.5499 4.94914C14.4205 3.82135 13.9608 2.80382 13.2741 1.98883Z" fill="#242730"/>
</svg>
